<?xml version="1.0" standalone="no"?>
<!DOCTYPE svg PUBLIC "-//W3C//DTD SVG 20010904//EN"
 "http://www.w3.org/TR/2001/REC-SVG-20010904/DTD/svg10.dtd">
<svg version="1.0" xmlns="http://www.w3.org/2000/svg"
 width="16.000000pt" height="16.000000pt" viewBox="0 0 16.000000 16.000000"
 preserveAspectRatio="xMidYMid meet">
<metadata>
Created by potrace 1.11, written by Peter Selinger 2001-2013
</metadata>
<g transform="translate(0.000000,16.000000) scale(0.002465,-0.002465)"
fill="#000000" stroke="none">
<path d="M3360 5745 c0 -9 -37 -13 -160 -15 -25 -1 -83 -6 -130 -12 -47 -6
-96 -11 -110 -12 -14 -1 -31 -6 -38 -10 -7 -4 -12 -5 -12 -2 0 3 -11 1 -25 -4
-16 -6 -26 -6 -31 1 -4 7 -10 6 -19 -1 -7 -6 -33 -12 -58 -13 -25 -1 -42 -6
-40 -11 3 -5 -8 -7 -26 -4 -17 2 -31 1 -31 -2 0 -7 -48 -22 -75 -24 -5 -1 -12
-3 -15 -6 -9 -9 -80 -40 -92 -40 -23 0 -218 -92 -218 -102 0 -5 -4 -6 -10 -3
-5 3 -10 3 -10 -2 0 -4 -10 -13 -23 -19 -38 -18 -121 -66 -149 -85 -14 -11
-30 -19 -35 -19 -5 0 -27 -17 -50 -37 -76 -69 -138 -118 -145 -116 -4 2 -9 -5
-12 -15 -3 -9 -19 -26 -36 -37 -16 -11 -30 -23 -30 -27 0 -5 -7 -8 -16 -8 -8
0 -13 -4 -10 -8 3 -5 -3 -15 -12 -24 -9 -8 -44 -46 -77 -84 -33 -38 -69 -78
-80 -89 -11 -12 -36 -44 -55 -72 -19 -28 -39 -49 -44 -45 -5 3 -6 0 -2 -6 4
-6 -2 -20 -14 -32 -11 -11 -20 -22 -20 -25 0 -8 -65 -100 -76 -107 -6 -4 -17
-21 -24 -38 -7 -16 -16 -30 -21 -30 -5 0 -9 -7 -9 -16 0 -9 -5 -12 -12 -8 -7
4 -8 3 -4 -5 4 -6 2 -18 -4 -27 -13 -15 -39 -59 -64 -109 -8 -16 -24 -43 -35
-59 -11 -17 -18 -33 -15 -38 3 -4 0 -8 -5 -8 -6 0 -11 -7 -11 -15 0 -9 -9 -34
-19 -56 -11 -22 -23 -53 -26 -70 -4 -17 -11 -26 -17 -23 -7 4 -8 2 -4 -4 4 -7
4 -18 -1 -24 -4 -7 -8 -17 -8 -23 -1 -5 -6 -9 -13 -8 -6 2 -9 -4 -6 -12 4 -8
3 -23 -1 -32 -10 -22 -12 -29 -19 -73 -4 -19 -13 -58 -21 -85 -8 -28 -14 -59
-14 -70 2 -67 -14 -251 -23 -269 -6 -12 -10 -21 -8 -21 2 0 -2 -24 -9 -52 -7
-29 -17 -53 -22 -53 -5 0 -8 -3 -7 -7 3 -11 -69 -153 -88 -174 -9 -10 -22 -16
-28 -12 -6 3 -8 3 -4 -1 18 -20 -229 -175 -254 -160 -7 4 -8 2 -4 -4 4 -7 1
-12 -6 -12 -7 0 -26 -7 -43 -16 -31 -17 -54 -23 -115 -28 -19 -2 -46 -7 -59
-11 -16 -5 -21 -4 -17 4 5 8 -1 8 -21 0 -36 -15 -51 -16 -155 -18 -51 0 -88
-5 -88 -11 0 -5 7 -10 16 -10 8 0 12 -4 9 -10 -3 -5 1 -10 9 -10 9 0 16 -4 16
-10 0 -5 7 -10 15 -10 8 0 15 -7 15 -15 0 -9 6 -12 15 -9 14 6 20 -7 16 -30
-1 -5 5 -4 13 4 13 10 16 10 16 -3 0 -8 -3 -17 -7 -20 -5 -2 -2 -2 6 0 9 2 12
-3 8 -17 -3 -12 -1 -18 5 -14 5 3 7 15 5 26 -4 12 -1 18 6 15 7 -3 11 -10 9
-17 -2 -10 1 -10 14 1 10 8 15 9 11 2 -9 -14 2 -43 15 -43 7 0 6 5 -1 13 -8
10 -7 14 4 14 8 0 12 -4 9 -9 -3 -4 5 -7 18 -5 18 1 23 -3 22 -20 -1 -13 3
-23 7 -23 5 0 9 9 9 21 0 23 21 22 28 -2 3 -11 2 -11 -7 1 -7 9 -11 10 -11 3
0 -16 17 -26 25 -13 8 13 25 13 25 -1 0 -5 -4 -7 -10 -4 -5 3 -10 1 -10 -4 0
-19 20 -12 31 12 9 20 9 20 6 -6 -3 -15 -2 -25 1 -22 3 2 11 0 19 -7 10 -8 17
-8 26 1 9 10 9 11 -3 8 -8 -2 -12 -2 -7 0 4 3 5 8 2 13 -6 10 15 7 34 -4 19
-12 72 -16 65 -5 -3 5 2 6 10 3 28 -11 17 -23 -16 -19 -18 2 -27 1 -20 -2 6
-2 10 -8 8 -12 -4 -6 34 -7 42 -1 1 2 6 3 11 4 5 0 13 5 18 10 5 5 3 6 -4 2
-7 -4 -13 -3 -13 3 0 5 9 9 20 8 14 -1 18 -6 15 -18 -3 -9 2 -22 12 -30 15
-11 16 -11 6 1 -17 19 -16 27 2 27 8 0 15 -5 15 -10 0 -5 7 -3 17 4 9 8 18 13
20 12 1 -2 2 0 1 5 -2 4 -6 6 -10 5 -4 -2 -4 5 -1 14 4 11 8 13 11 5 2 -7 8
-10 13 -6 5 3 9 -2 9 -11 0 -9 4 -14 10 -10 5 3 6 13 3 22 -6 15 -5 16 9 3 14
-14 13 -17 -11 -32 -14 -10 -32 -18 -39 -18 -7 0 -10 -4 -7 -10 3 -5 -1 -10
-9 -10 -8 0 -22 -7 -30 -16 -9 -8 -16 -12 -16 -7 0 4 -4 2 -9 -6 -8 -12 -12
-13 -25 -1 -14 11 -16 10 -10 -3 4 -10 -4 -21 -23 -31 l-28 -15 33 -1 c17 0
32 -5 32 -11 0 -6 8 -9 18 -7 10 3 23 -1 30 -9 7 -7 18 -13 24 -13 7 0 3 7 -8
16 -10 8 -13 12 -5 8 7 -3 18 0 23 7 8 11 9 10 4 -4 -5 -14 -1 -16 24 -12 18
3 30 1 30 -5 0 -6 -5 -8 -12 -4 -7 4 -8 3 -4 -4 4 -7 2 -12 -5 -12 -7 0 -9 -3
-6 -6 4 -4 14 -1 23 7 15 12 16 11 9 -11 -9 -29 -3 -25 15 9 8 15 8 21 1 17
-6 -4 -11 -2 -11 3 0 15 11 13 34 -4 10 -8 23 -12 27 -9 5 3 9 0 9 -6 0 -6 4
-8 10 -5 6 3 10 14 10 23 0 13 -2 14 -9 4 -4 -8 -10 -14 -13 -15 -9 -3 -38 25
-38 37 0 6 5 3 11 -7 8 -13 14 -15 28 -7 20 10 47 -10 33 -25 -4 -5 -1 -5 6
-1 9 5 9 12 1 28 -8 15 -8 19 0 14 6 -4 11 -1 11 6 0 8 4 7 11 -4 5 -9 16 -15
24 -12 8 4 12 11 8 18 -4 6 1 5 10 -3 13 -11 17 -11 17 -1 0 8 3 10 7 7 3 -4
13 -1 21 6 13 9 14 9 8 0 -4 -8 -1 -13 9 -13 10 0 13 5 9 13 -4 6 -4 9 1 5 4
-4 14 -3 21 3 15 12 34 4 33 -14 0 -9 -2 -9 -6 1 -2 6 -9 12 -14 12 -6 0 -7
-5 -3 -12 5 -7 3 -8 -6 -3 -8 5 -11 4 -7 -2 3 -5 1 -10 -6 -10 -7 0 -21 -4
-31 -9 -14 -5 -17 -4 -11 5 6 10 2 10 -16 0 -13 -7 -31 -12 -39 -11 -8 2 -1
-6 15 -16 17 -11 32 -17 35 -15 2 2 -2 8 -10 13 -8 5 -11 12 -7 16 4 4 12 3
19 -4 8 -8 15 -7 26 4 11 11 17 12 22 4 5 -8 9 -6 14 6 5 13 10 14 18 6 8 -8
17 -8 30 -1 10 5 24 7 31 4 15 -8 -15 16 -38 30 -14 8 -12 10 11 12 19 1 23
-1 13 -8 -11 -7 -11 -9 3 -9 9 0 18 5 20 12 3 7 7 5 11 -6 5 -11 3 -15 -5 -10
-7 4 -8 3 -4 -5 4 -6 12 -9 17 -6 5 4 9 1 9 -6 0 -7 2 -10 5 -7 3 3 1 18 -5
34 l-10 29 19 -25 c11 -13 17 -29 14 -34 -3 -5 -1 -6 6 -2 9 6 9 11 0 22 -8
10 -8 14 0 14 6 0 12 -6 13 -12 0 -7 2 -20 3 -28 2 -20 -50 -166 -70 -197 -9
-13 -21 -21 -27 -17 -6 4 -8 3 -5 -3 3 -5 -6 -22 -19 -39 -14 -16 -44 -51 -67
-78 -88 -104 -114 -130 -167 -166 -102 -71 -141 -112 -141 -145 2 -57 4 -63
28 -74 13 -6 21 -16 18 -21 -3 -6 3 -10 14 -10 12 0 21 -4 21 -10 0 -5 7 -10
15 -10 8 0 15 -4 15 -8 0 -5 12 -14 26 -20 14 -7 23 -16 20 -21 -7 -11 8 -8
44 6 28 12 42 7 20 -7 -8 -6 -10 -10 -4 -10 6 0 14 3 18 7 11 11 30 10 39 -2
4 -6 11 -5 18 5 9 13 10 13 5 -2 -3 -11 -1 -15 8 -12 7 3 18 -2 25 -10 7 -8
20 -12 29 -9 15 6 16 5 2 -12 -14 -17 -14 -17 6 -5 16 10 19 16 10 26 -6 6
-19 10 -29 8 -10 -2 -17 3 -17 13 0 13 3 13 15 3 12 -10 15 -10 15 1 0 8 6 5
15 -7 15 -19 15 -19 9 1 -4 14 -3 16 3 7 6 -7 14 -12 19 -11 18 3 34 -1 34 -9
0 -5 -7 -9 -15 -9 -8 0 -11 5 -8 10 4 6 1 7 -6 3 -12 -8 -7 -21 7 -21 13 -1
52 -30 52 -38 0 -4 -4 -6 -8 -3 -5 3 -9 -1 -9 -8 0 -8 5 -12 11 -10 7 3 11
-16 10 -53 -1 -32 10 -124 25 -205 20 -106 25 -151 17 -159 -8 -9 -8 -10 0 -6
16 9 24 -49 10 -64 -8 -9 -8 -10 1 -5 7 4 17 -20 28 -72 10 -42 28 -99 40
-127 25 -56 81 -120 89 -102 2 7 5 4 5 -7 1 -15 4 -16 16 -6 12 10 15 10 15 0
0 -7 6 -10 14 -7 8 3 24 -3 36 -13 20 -17 40 -19 40 -4 0 3 -4 3 -9 -1 -5 -3
-12 -1 -15 4 -5 7 22 8 32 1 1 -2 8 -3 15 -4 6 -1 11 -11 10 -23 -2 -21 -2
-21 24 3 15 14 30 21 37 16 6 -5 32 -8 59 -7 26 1 47 -2 47 -8 0 -6 5 -6 13 0
14 11 53 10 79 -1 9 -4 23 -9 31 -10 8 -1 22 -8 31 -15 9 -7 17 -10 17 -5 1 5
2 16 3 24 1 9 13 15 36 15 20 1 41 5 48 9 7 4 11 4 10 -1 -2 -4 1 -8 7 -8 5 0
9 4 7 9 -2 5 3 5 10 0 7 -6 20 -10 28 -9 8 0 21 -7 28 -17 15 -20 32 -24 32
-7 0 5 -5 7 -12 3 -7 -5 -8 -3 -3 6 6 9 4 11 -6 5 -12 -7 -12 -6 0 6 10 11 15
11 18 2 3 -7 14 -13 24 -13 11 0 18 4 15 9 -4 5 13 8 36 6 24 -2 49 2 57 8 12
9 13 9 7 0 -9 -17 6 -17 23 0 11 10 13 9 7 -1 -10 -17 9 -15 28 3 13 14 15 13
13 -4 0 -10 -6 -18 -12 -17 -5 2 -7 1 -2 -1 4 -3 5 -9 1 -14 -3 -5 0 -9 5 -9
6 0 11 5 11 11 0 5 4 8 9 5 5 -3 8 0 7 7 0 6 3 13 8 14 5 1 12 6 15 12 4 6 11
3 18 -8 9 -14 8 -18 -3 -18 -7 0 -11 3 -9 7 2 4 -3 7 -11 7 -9 0 -11 -4 -5
-10 5 -5 7 -17 4 -26 -4 -14 -3 -14 6 -1 6 8 11 11 11 6 0 -5 6 -3 14 3 8 6
18 11 22 10 19 -3 34 1 34 10 0 5 -11 8 -25 5 -19 -3 -25 0 -25 13 0 14 2 15
9 4 6 -9 10 -10 16 -2 5 9 10 9 20 1 10 -8 14 -7 18 2 4 10 6 10 6 1 1 -7 8
-13 16 -13 7 0 18 -7 23 -16 8 -15 10 -15 15 0 5 12 -1 19 -18 26 -14 5 -25
12 -25 15 0 10 54 -16 68 -33 13 -16 13 -16 7 3 -3 11 -3 16 1 12 4 -4 12 1
19 10 13 17 35 10 35 -10 0 -7 -4 -6 -10 3 -5 8 -12 11 -17 7 -9 -9 17 -28 29
-21 4 3 8 0 8 -7 0 -10 3 -10 12 -1 17 17 33 15 19 -2 -8 -10 -9 -16 -1 -21 6
-4 9 -1 8 7 -2 7 4 12 12 10 10 -3 9 2 -5 18 -11 12 -21 17 -23 11 -5 -16 -19
-13 -19 4 0 8 4 12 9 9 4 -3 8 0 8 5 0 6 9 2 20 -9 11 -11 25 -20 31 -20 5 0
8 -3 6 -8 -3 -4 10 -8 29 -8 26 -1 34 2 32 14 -2 8 3 17 10 19 8 3 10 -1 6
-14 -6 -16 -5 -16 10 2 17 20 17 20 11 -5 -6 -24 -5 -24 7 -4 7 12 19 19 26
17 6 -3 12 0 12 7 0 6 -4 9 -8 6 -5 -3 -9 0 -9 7 0 7 8 13 17 13 11 0 16 -7
14 -21 -1 -11 -3 -23 -3 -27 -1 -4 -8 -5 -16 -2 -8 4 -15 2 -15 -4 0 -14 30
-8 40 8 5 8 6 18 3 23 -3 5 0 7 8 5 8 -3 13 -14 11 -24 -3 -18 -3 -18 12 1 13
17 17 18 26 5 5 -8 10 -10 10 -4 0 18 -27 37 -33 24 -4 -7 -5 -7 -4 0 2 7 6
11 11 10 5 -1 13 4 18 12 7 10 8 8 4 -5 -4 -13 -1 -17 12 -15 9 2 20 7 24 13
7 10 60 16 54 6 -2 -3 7 -20 20 -36 14 -17 22 -23 19 -14 -5 14 22 49 32 42 7
-6 23 -2 23 5 0 5 -7 9 -15 9 -8 0 -12 -3 -10 -7 2 -4 -2 -7 -10 -7 -10 0 -12
4 -5 12 5 7 8 14 5 17 -3 2 2 5 11 5 9 0 23 -11 31 -24 12 -18 19 -21 29 -12
8 6 14 8 14 4 0 -5 9 0 19 9 11 10 17 25 14 34 -4 12 -1 11 10 -3 11 -15 12
-22 4 -28 -8 -6 -7 -7 3 -4 8 2 22 1 31 -4 10 -5 16 -3 16 6 0 8 -7 11 -16 7
-14 -5 -14 -3 -2 11 10 12 18 14 31 7 28 -15 32 -12 12 8 -10 11 -21 15 -28
10 -6 -4 -15 -4 -19 0 -5 4 -5 2 -2 -4 3 -6 0 -11 -7 -11 -7 0 -13 6 -13 13 0
7 4 11 8 8 4 -2 10 0 13 5 7 11 24 9 54 -7 12 -7 27 -10 32 -7 5 3 11 1 15 -5
3 -5 12 -10 18 -10 11 1 -20 24 -33 25 -3 0 -14 6 -25 14 -15 9 -15 11 -3 7
10 -3 20 -1 23 4 6 9 24 8 42 -3 6 -4 14 -3 18 3 3 5 1 10 -6 10 -7 0 -10 3
-6 6 3 3 11 3 17 -1 8 -5 8 -11 -1 -21 -8 -10 -15 -11 -24 -4 -8 7 -16 7 -19
2 -3 -6 3 -12 14 -15 11 -3 22 -1 25 3 7 11 45 9 45 -2 0 -4 5 -8 11 -8 8 0 8
4 -1 15 -6 8 -9 20 -5 27 4 7 -1 4 -9 -6 -14 -17 -16 -18 -16 -3 0 9 5 17 11
17 5 0 7 6 3 13 -6 8 -3 8 9 -1 9 -8 15 -19 14 -25 -1 -7 4 -11 12 -9 9 2 11
-3 7 -15 -6 -17 -5 -17 7 -1 8 10 17 15 20 12 3 -3 16 1 28 10 18 12 26 13 38
3 14 -10 14 -10 3 5 -11 14 -10 18 7 28 18 9 21 8 22 -7 0 -11 3 -13 6 -5 2 6
9 10 14 7 5 -4 17 -1 26 5 17 11 17 11 0 6 -10 -3 -27 -1 -39 5 -15 8 -24 7
-38 -6 -10 -9 -27 -18 -37 -20 -10 -1 -17 -8 -15 -15 1 -6 -2 -10 -8 -8 -7 2
-12 8 -12 13 0 6 -4 15 -9 21 -5 7 -3 11 6 11 8 0 11 -5 8 -10 -3 -5 0 -7 8
-5 8 3 13 12 11 19 -3 11 -1 11 9 2 12 -12 42 -7 34 6 -2 4 1 8 8 8 22 1 42 8
50 18 5 6 5 0 2 -12 -4 -14 -2 -23 4 -23 11 0 15 15 12 34 -1 5 5 3 14 -4 13
-11 18 -11 24 -1 6 10 10 9 15 -4 3 -9 12 -15 19 -12 7 3 21 -1 31 -9 11 -7
23 -11 29 -7 6 3 7 1 3 -6 -4 -6 -12 -9 -17 -6 -5 3 -6 -1 -2 -10 4 -12 8 -13
13 -5 10 15 50 3 50 -15 0 -7 7 -15 15 -19 13 -5 14 -2 5 17 -10 20 -10 21 4
4 8 -10 17 -17 20 -15 3 2 15 -5 26 -15 23 -20 34 -22 24 -5 -4 7 -3 8 5 4 6
-4 9 -12 6 -17 -3 -5 1 -6 10 -3 11 5 14 2 8 -12 -4 -12 -3 -15 5 -10 7 4 12
14 12 22 0 8 5 12 10 9 6 -4 8 -10 6 -14 -3 -4 0 -13 6 -21 8 -12 9 -12 4 3
-3 11 0 17 9 17 8 0 15 5 15 12 0 6 3 8 6 5 4 -4 1 -14 -7 -24 -10 -12 -10
-15 -1 -9 22 13 73 25 67 16 -3 -5 -1 -11 4 -14 5 -4 12 -2 16 4 4 6 13 5 25
-2 10 -7 17 -15 14 -19 -8 -14 26 -18 40 -4 10 11 16 11 18 3 3 -7 9 -8 19 -3
8 5 28 10 45 10 24 1 31 -2 27 -13 -3 -7 -9 -10 -12 -5 -9 12 -31 14 -31 3 0
-6 7 -10 15 -10 9 0 12 -6 8 -17 -3 -10 6 -3 21 16 14 19 26 30 26 23 0 -7 9
-12 21 -12 11 0 18 4 15 9 -4 5 2 8 11 6 10 -1 24 3 32 9 11 8 13 8 8 -1 -10
-17 11 -27 28 -13 11 9 13 6 10 -22 -2 -18 -1 -27 2 -20 2 6 9 10 13 7 5 -3 7
3 5 13 -2 12 3 18 15 18 13 0 16 -4 10 -12 -6 -6 -7 -14 -3 -18 4 -4 16 3 26
16 l19 23 -6 -30 c-3 -16 -3 -24 0 -17 8 17 24 15 24 -2 0 -8 4 -18 10 -21 11
-7 2 23 -13 43 -7 9 -6 11 7 6 12 -5 15 -2 10 12 -5 16 -4 16 5 4 9 -12 12
-13 20 -1 6 10 10 10 16 1 4 -6 14 -9 22 -6 8 3 11 1 8 -4 -7 -11 8 -14 18 -3
4 3 19 8 34 9 18 2 23 0 15 -5 -11 -6 -10 -10 4 -15 9 -4 22 -1 28 5 8 9 8 10
0 6 -6 -3 -11 0 -11 8 0 12 3 12 16 2 12 -10 14 -9 8 8 -7 19 -6 19 7 3 7 -10
19 -18 25 -18 7 0 9 -5 6 -10 -5 -8 -11 -8 -20 0 -9 8 -14 7 -18 -4 -4 -11 -1
-13 11 -9 14 6 15 4 4 -9 -10 -13 -10 -18 -1 -24 7 -4 9 -3 6 3 -3 5 3 17 13
26 11 9 17 23 14 32 -6 14 12 21 40 16 5 -1 6 6 2 16 -6 17 -5 17 8 1 13 -18
32 -25 22 -9 -3 5 2 12 12 16 28 13 42 14 36 3 -4 -6 1 -8 14 -4 12 4 23 2 28
-5 4 -8 3 -9 -4 -5 -7 4 -19 3 -28 -2 -11 -6 -13 -11 -5 -16 6 -4 11 -2 11 3
0 6 5 11 11 11 5 0 8 -4 4 -9 -3 -5 -1 -12 5 -16 6 -4 7 -11 4 -17 -4 -7 -2
-8 5 -4 8 5 9 12 3 19 -6 8 -3 19 9 31 17 18 19 18 25 2 5 -13 9 -15 15 -5 6
10 11 10 25 -2 16 -13 16 -12 3 9 -15 24 -29 29 -29 11 0 -8 -4 -8 -13 0 -10
8 -17 7 -25 -1 -9 -9 -12 -9 -12 0 0 7 6 13 13 13 6 1 17 2 22 4 6 1 16 3 23
3 8 1 10 7 6 15 -5 8 -2 8 9 -2 15 -12 17 -11 17 4 0 11 5 15 15 11 8 -3 21 1
29 9 12 13 15 12 20 -1 3 -8 10 -12 16 -9 5 3 10 1 10 -5 0 -12 12 -2 37 31
10 13 10 16 -2 16 -8 0 -11 -5 -8 -10 4 -6 1 -7 -7 -2 -9 6 -11 4 -5 -6 5 -8
5 -11 0 -7 -4 4 -15 2 -24 -4 -9 -7 -13 -8 -9 -4 4 5 3 15 -3 23 -9 9 -8 13 0
13 6 0 11 -5 11 -12 0 -7 6 -6 18 4 9 8 23 13 30 12 6 -1 17 -2 23 -3 8 -1 8
-6 -1 -16 -7 -8 -9 -15 -4 -15 5 0 0 -7 -10 -15 -11 -8 -15 -15 -9 -15 6 0 16
7 23 15 7 8 9 15 5 15 -4 0 -2 6 4 14 9 11 9 16 0 21 -8 6 -7 10 2 16 12 8 12
10 1 18 -11 7 -11 9 0 14 15 5 19 -6 19 -55 0 -15 4 -30 8 -33 5 -3 7 4 4 15
-4 14 -1 19 8 17 8 -2 11 -2 7 0 -16 9 -7 22 10 17 14 -5 14 -4 2 4 -8 6 -17
9 -21 6 -4 -2 -6 3 -5 12 1 9 13 22 27 30 13 7 18 13 10 14 -8 0 -12 3 -9 6 4
3 15 1 27 -5 18 -10 20 -9 16 18 -3 28 -2 29 16 18 11 -7 15 -13 9 -15 -15 -5
-12 -19 4 -19 16 0 15 19 -1 39 -8 10 -9 18 -1 28 8 12 9 12 4 -2 -9 -29 27
-41 53 -17 11 11 21 17 21 14 0 -2 9 3 19 12 11 9 17 21 15 28 -3 6 7 17 20
25 14 7 23 17 20 22 -3 4 -1 8 5 8 5 0 11 -5 13 -12 3 -7 7 -5 11 6 5 11 3 15
-5 10 -8 -5 -9 -2 -5 9 3 9 1 19 -5 23 -6 4 -8 3 -4 -4 3 -6 -3 -17 -14 -25
-11 -7 -17 -16 -14 -20 3 -3 -3 -10 -13 -16 -15 -7 -20 -7 -20 4 0 8 7 11 16
7 14 -5 14 -4 2 12 -8 9 -10 16 -5 15 14 -3 44 12 39 21 -2 4 5 16 18 26 12
11 17 12 10 4 -8 -12 -7 -18 5 -30 14 -13 15 -12 9 3 -3 9 -1 19 5 23 7 4 2
14 -13 26 -22 18 -22 18 -2 9 14 -7 24 -8 28 -1 3 5 1 10 -6 10 -7 0 3 11 22
23 19 13 33 29 32 35 -2 7 4 9 15 5 14 -5 15 -3 5 8 -7 7 -13 17 -13 23 0 5 6
2 13 -9 14 -18 37 -14 37 8 0 7 -4 6 -10 -3 -16 -25 -11 3 6 30 15 25 15 25 8
1 -4 -16 -3 -21 5 -17 12 8 4 -21 -12 -42 -7 -9 -6 -17 3 -25 10 -9 11 -9 6 1
-4 7 -4 18 1 25 15 20 34 69 25 63 -12 -7 -9 41 2 51 5 5 6 2 1 -6 -6 -11 -4
-13 9 -8 10 4 21 7 24 7 4 0 2 4 -5 8 -9 6 -7 11 7 20 14 8 21 9 26 0 5 -7 3
-8 -6 -3 -9 6 -11 4 -5 -5 5 -9 4 -11 -3 -6 -8 5 -10 2 -6 -8 8 -20 15 -20 40
-1 12 9 13 13 4 10 -11 -4 -16 1 -17 15 -2 17 1 18 18 10 15 -8 19 -8 17 2 -2
7 3 12 10 11 18 -4 15 5 -8 17 -16 9 -19 8 -13 -6 4 -12 2 -15 -8 -12 -8 3
-13 11 -11 18 1 7 -3 19 -10 28 -10 12 -7 11 15 -2 15 -10 27 -15 27 -11 0 4
8 1 18 -6 15 -12 16 -12 5 2 -7 9 -10 19 -6 23 4 4 0 4 -10 0 -9 -3 -17 -1
-17 4 0 6 9 9 21 7 13 -3 19 0 16 8 -2 7 -13 10 -23 9 -10 -2 -17 -2 -14 0 3
2 16 12 29 23 14 11 22 15 18 10 -3 -6 3 -17 15 -24 11 -7 17 -8 13 -2 -3 6
-2 11 4 11 6 0 9 15 7 34 -1 19 0 35 3 34 32 -3 40 21 11 34 -9 4 -5 6 12 5
21 -1 24 -4 16 -14 -8 -9 -7 -13 2 -13 9 0 9 -4 -1 -17 -13 -16 -12 -17 3 -5
9 8 22 11 27 8 5 -4 13 -2 16 4 4 6 3 10 -2 9 -18 -3 -33 1 -33 10 0 5 8 8 17
7 17 -1 19 3 22 40 0 8 6 12 11 9 6 -3 10 -2 10 4 0 5 -9 9 -19 8 -15 -1 -19
-7 -16 -29 3 -27 -4 -36 -18 -21 -4 3 -2 12 4 20 8 8 8 13 1 13 -6 0 -12 -6
-15 -12 -2 -7 -8 -9 -13 -5 -5 5 -1 13 9 18 9 6 14 15 11 21 -4 7 -2 8 4 4 7
-4 12 -3 12 2 0 5 9 19 20 32 22 25 27 45 8 34 -7 -5 -8 -3 -3 6 6 10 11 10
20 -3 14 -19 35 -23 35 -6 0 5 4 7 10 4 6 -4 7 1 3 12 -6 15 -4 16 9 5 11 -9
18 -10 23 -2 4 6 3 9 -2 8 -4 -2 -9 -1 -10 2 -1 3 -6 17 -12 32 -8 21 -7 31 4
41 10 10 11 17 3 25 -8 8 -5 10 7 8 10 -1 19 -10 21 -19 1 -10 -2 -15 -6 -12
-5 3 -11 1 -14 -3 -3 -5 10 -14 29 -20 19 -5 33 -6 29 -1 -3 5 -12 9 -20 9 -8
0 -13 5 -11 12 4 20 21 36 32 30 6 -3 4 1 -3 10 -9 11 -10 18 -2 23 5 3 10 1
10 -4 0 -6 4 -11 9 -11 5 0 4 11 -2 24 -11 23 -22 26 -22 5 0 -5 -3 -9 -7 -9
-5 0 -11 0 -15 0 -3 0 2 9 12 20 21 23 47 27 39 6 -7 -18 12 -30 22 -15 4 8 3
9 -4 5 -8 -5 -11 0 -9 15 2 13 12 26 23 30 16 7 17 8 2 8 -18 1 -14 31 4 31 5
0 7 -4 4 -9 -7 -11 20 -8 31 3 4 4 1 6 -7 4 -8 -2 -16 4 -16 12 -1 8 -2 21 -3
28 0 7 -6 10 -12 7 -6 -4 -8 -12 -6 -19 3 -6 -1 -20 -9 -30 -7 -11 -11 -23 -8
-27 3 -5 -3 -6 -13 -3 -15 5 -16 4 -3 -5 8 -6 10 -11 4 -11 -6 0 -17 7 -24 16
-8 8 -9 14 -4 13 5 -1 16 -1 24 0 13 1 13 2 0 11 -13 8 -13 10 2 10 11 0 16 6
13 20 -2 11 1 20 6 20 6 0 8 4 5 8 -2 4 7 9 20 10 14 1 23 -2 20 -6 -3 -5 1
-9 9 -9 13 0 12 3 -1 18 -9 10 -21 16 -25 13 -5 -3 -6 2 -2 11 4 12 8 13 13 5
6 -10 13 -9 31 4 13 9 18 16 11 16 -7 0 -11 4 -7 10 3 5 13 7 23 4 15 -5 15
-4 -1 6 -9 6 -15 16 -11 22 4 7 9 6 15 -3 4 -7 10 -11 14 -8 3 3 -5 14 -17 25
-12 10 -18 13 -13 5 5 -9 4 -12 -3 -7 -13 8 5 46 22 46 4 0 4 -6 -2 -13 -8 -9
-6 -16 8 -25 12 -7 21 -8 25 -2 4 6 1 9 -6 8 -6 -2 -14 3 -17 11 -3 10 0 11 9
5 11 -6 10 -3 -1 11 -14 17 -13 18 3 12 15 -6 16 -4 7 13 -12 22 -21 27 -17 9
1 -6 -4 -14 -10 -16 -15 -6 -17 13 -3 22 6 4 7 12 3 18 -4 7 5 4 19 -5 17 -11
29 -14 33 -8 4 6 3 10 -2 9 -20 -3 -23 2 -9 17 9 8 14 20 10 25 -8 14 16 40
30 32 8 -5 8 -3 -1 8 -6 8 -12 19 -13 24 -1 6 -4 12 -7 15 -4 3 -3 0 1 -7 3
-6 2 -14 -4 -18 -6 -4 -8 -10 -5 -15 3 -5 0 -12 -6 -16 -7 -4 -9 -3 -5 4 3 6
2 14 -4 17 -8 5 -8 11 0 20 8 10 7 15 -2 19 -7 3 1 3 19 0 28 -4 31 -2 26 13
-6 16 -5 16 10 5 14 -12 16 -11 12 7 -2 12 -6 25 -9 30 -4 5 -1 11 5 13 5 2 7
11 4 21 -4 9 -10 15 -14 12 -4 -2 -8 2 -8 9 0 7 6 13 13 13 7 0 11 -4 9 -8 -3
-3 2 -12 9 -18 11 -9 14 -9 12 1 -1 7 -5 19 -10 26 -13 22 3 27 19 6 15 -19
15 -19 8 0 -5 14 -3 17 7 11 9 -5 11 -4 6 4 -4 6 -11 9 -16 6 -4 -3 -19 4 -31
16 -23 19 -23 20 -2 10 16 -8 24 -8 29 1 4 6 3 8 -3 5 -6 -4 -17 1 -26 11 -15
16 -15 19 4 31 16 9 19 9 14 0 -6 -8 -4 -10 5 -4 9 5 11 4 6 -4 -4 -6 -12 -9
-17 -6 -5 4 -9 1 -9 -4 0 -15 27 -14 33 2 3 7 -1 20 -7 30 -10 13 -16 14 -27
4 -7 -7 -6 -3 4 9 12 14 14 23 6 31 -8 8 -8 13 0 17 8 5 8 14 0 29 -10 21 -10
21 5 3 9 -11 16 -14 16 -7 0 7 4 10 9 6 5 -3 13 0 17 6 4 8 3 9 -4 5 -7 -4
-12 -2 -12 4 0 6 -4 9 -9 5 -5 -3 -13 0 -17 6 -4 8 -3 9 4 5 7 -4 12 -2 12 4
0 8 6 8 23 0 21 -11 21 -11 2 5 -11 8 -25 13 -33 10 -8 -3 -10 0 -6 6 4 7 7
21 8 33 1 14 7 20 19 18 20 -3 23 18 5 37 -11 12 -9 13 7 7 18 -5 18 -5 4 7
-17 13 -19 39 -4 71 6 13 3 21 -8 28 -10 5 -17 14 -17 19 0 6 4 7 10 4 17 -10
49 -14 54 -6 4 6 -16 10 -71 12 -17 1 -19 4 -10 14 7 7 18 10 24 8 7 -3 13 0
13 7 0 6 -4 8 -10 5 -5 -3 -10 -1 -10 5 0 6 -5 8 -12 4 -6 -4 -8 -3 -4 4 3 5
3 12 -1 15 -5 2 -3 2 4 1 7 -2 15 1 18 6 4 6 1 10 -6 10 -10 0 -10 3 -1 12 19
19 14 32 -5 17 -15 -11 -16 -11 -5 1 6 8 12 18 12 23 0 4 -6 5 -12 1 -10 -6
-10 -5 -1 8 7 8 10 18 6 21 -3 4 2 16 12 27 19 21 41 28 29 8 -5 -7 -3 -8 6
-3 17 11 -16 36 -36 28 -8 -3 -14 -2 -13 3 1 5 0 11 -1 14 -8 22 -6 39 6 44
12 4 12 2 4 -14 -6 -11 -9 -20 -8 -21 33 -8 38 -7 26 8 -10 13 -10 17 0 20 6
3 12 9 12 14 0 6 -4 8 -9 5 -5 -3 -8 5 -8 18 0 17 4 23 13 19 8 -3 11 -10 7
-16 -4 -6 -1 -7 7 -2 10 6 10 11 -3 20 -9 7 -14 15 -10 18 3 4 2 7 -4 7 -6 0
-13 -7 -17 -15 -3 -8 -13 -15 -23 -14 -15 0 -15 2 -3 7 20 9 19 30 0 42 -20
13 -3 13 21 0 11 -6 19 -7 18 -3 -1 4 0 10 1 13 1 3 3 17 4 31 2 23 -1 26 -21
24 -22 -2 -23 -1 -8 21 21 33 19 40 -7 18 l-22 -19 16 24 c9 13 14 31 11 40
-3 10 2 8 16 -7 18 -21 20 -21 18 -3 0 11 -4 18 -8 15 -4 -2 -11 0 -14 6 -5 8
-11 8 -20 0 -11 -10 -13 -8 -10 9 2 12 -1 21 -8 21 -8 0 -8 3 2 9 9 6 10 11 2
15 -6 4 -9 12 -6 17 4 5 1 9 -4 9 -6 0 -11 5 -11 11 0 8 4 8 13 1 9 -7 17 -8
27 -1 13 9 13 10 0 6 -18 -4 -41 17 -38 35 2 7 -3 12 -10 10 -8 -1 -11 2 -7 8
3 6 11 8 16 5 5 -3 6 1 3 9 -3 9 -11 13 -18 9 -6 -4 -5 1 3 10 12 15 9 21 -11
18 -4 0 -5 6 -2 14 4 8 10 15 16 15 5 0 6 -5 2 -12 -5 -7 -3 -8 6 -3 10 6 9
11 -5 21 -10 7 -22 11 -28 7 -6 -3 -7 -1 -3 5 3 6 2 13 -3 17 -6 3 -8 12 -4
20 3 8 -1 15 -8 15 -7 0 -9 3 -6 6 4 4 12 2 20 -4 10 -8 13 -6 14 11 2 15 0
18 -6 8 -13 -21 -49 24 -47 59 1 16 -2 27 -6 24 -4 -3 -5 3 -1 12 5 13 3 16
-10 11 -12 -4 -14 -2 -10 11 3 9 11 24 17 32 10 13 9 13 -7 1 -12 -10 -21 -11
-28 -4 -8 8 -7 13 2 18 8 6 10 4 4 -6 -8 -12 -6 -12 8 0 22 18 22 20 -7 17
-20 -3 -23 1 -21 20 1 15 -4 24 -18 28 -18 4 -19 7 -6 22 12 16 12 17 -2 12
-16 -6 -24 22 -9 32 4 3 -2 14 -13 25 -20 20 -20 20 -8 -2 7 -14 8 -24 1 -28
-5 -3 -10 2 -10 13 0 10 -3 22 -7 26 -5 4 -8 13 -8 19 -1 7 -5 11 -11 10 -5
-1 -10 7 -10 17 0 10 3 17 6 15 4 -2 7 2 7 10 0 10 -5 11 -19 4 -10 -5 -18 -6
-17 -2 4 23 -2 43 -11 38 -5 -3 -10 3 -10 14 0 12 -4 21 -10 21 -5 0 -14 10
-21 21 -9 17 -8 23 2 30 8 5 9 9 3 9 -5 0 -16 -6 -23 -12 -10 -9 -12 -9 -7 -1
3 6 2 14 -4 18 -6 4 -8 11 -5 16 4 5 1 9 -6 9 -9 0 -9 3 0 14 9 11 9 16 0 22
-8 4 -9 3 -5 -4 10 -17 -13 -15 -30 3 -9 8 -12 20 -8 26 4 8 3 9 -5 5 -7 -5
-24 4 -41 22 -16 17 -31 27 -35 24 -4 -4 -6 -2 -4 3 4 17 -13 45 -23 39 -5 -3
-12 3 -15 15 -3 12 -13 21 -25 21 -12 0 -18 6 -16 17 2 10 -3 18 -9 19 -7 1
-17 2 -23 3 -5 0 -10 10 -10 20 0 11 -5 23 -12 27 -7 4 -8 3 -4 -4 4 -7 3 -12
-2 -12 -11 0 -26 30 -23 43 1 5 -3 6 -8 2 -6 -3 -19 2 -30 12 -10 10 -31 26
-45 36 -15 10 -23 23 -20 29 4 7 2 8 -5 4 -15 -10 -43 13 -34 27 4 6 1 7 -6 3
-15 -10 -53 23 -44 37 3 6 1 7 -6 3 -6 -4 -28 5 -49 22 -20 16 -47 35 -60 41
-20 11 -21 15 -10 29 11 15 11 15 -3 4 -22 -16 -50 -6 -41 16 5 15 4 15 -11 3
-11 -9 -17 -10 -17 -2 0 6 -6 11 -14 11 -8 0 -16 3 -18 8 -1 4 -24 18 -50 31
-27 13 -48 28 -48 33 0 4 -9 8 -20 8 -11 0 -20 5 -20 10 0 6 -7 10 -16 10 -11
0 -14 5 -9 18 5 13 3 14 -6 5 -13 -13 -42 -6 -33 8 3 5 -2 9 -11 9 -9 0 -29 8
-43 18 -15 11 -41 25 -59 33 -17 7 -29 17 -26 23 3 5 1 6 -5 2 -7 -4 -24 0
-39 8 -16 8 -42 20 -60 27 -17 7 -29 17 -26 23 3 5 1 6 -6 2 -12 -8 -123 41
-129 57 -2 4 -8 5 -13 2 -5 -3 -19 0 -31 7 -13 7 -26 13 -30 14 -5 1 -10 3
-13 4 -6 3 -4 2 -60 15 -22 4 -43 8 -47 7 -5 -1 -8 2 -8 7 0 8 -15 12 -85 24
-17 3 -67 18 -115 35 -22 8 -21 7 -67 16 -24 4 -43 12 -43 16 0 5 -11 7 -25 4
-14 -2 -25 -1 -25 3 0 5 -10 8 -22 9 -13 0 -41 4 -63 8 -22 4 -56 9 -75 12
-19 3 -39 9 -46 15 -8 6 -14 6 -18 0 -6 -9 -52 -1 -96 16 -8 3 -60 7 -115 8
-55 2 -100 4 -100 5 0 5 -114 3 -129 -3 -12 -5 -23 -3 -28 5 -4 7 -8 9 -8 3z
m2996 -2150 c4 -25 -14 -27 -26 -4 -8 15 -9 19 -1 15 6 -4 11 -2 11 5 0 16 13
3 16 -16z m-6 -99 c0 -2 -7 -9 -15 -16 -13 -11 -14 -10 -9 4 5 14 24 23 24 12z
m10 -100 c0 -2 -12 -11 -27 -20 l-28 -17 24 20 c23 21 31 25 31 17z m-5 -266
c0 -7 -11 -14 -25 -16 -14 -1 -19 0 -12 2 6 3 12 12 12 21 0 8 6 13 13 11 6
-3 12 -11 12 -18z m-10 -65 c-2 -14 1 -27 6 -31 15 -9 10 -20 -10 -20 -14 0
-17 4 -10 12 7 9 5 16 -8 23 -12 7 -13 10 -4 11 7 0 11 6 8 14 -6 16 2 28 13
21 4 -2 6 -16 5 -30z m-5539 -297 c5 4 6 3 1 -2 -12 -16 -46 -14 -40 1 4 9 9
10 18 3 6 -5 16 -6 21 -2z m-120 -33 c1 -8 -2 -15 -8 -15 -6 0 -7 8 -4 18 5
14 4 14 -9 -2 -12 -16 -15 -17 -15 -4 0 9 6 18 13 21 15 5 20 1 23 -18z m5624
-19 c0 -3 -4 -8 -10 -11 -5 -3 -10 -1 -10 4 0 6 5 11 10 11 6 0 10 -2 10 -4z
m-15 -68 c5 4 5 1 1 -5 -10 -18 -23 -16 -30 3 -5 13 -4 14 7 6 8 -7 18 -8 22
-4z m-1 -44 c3 -8 2 -12 -3 -9 -5 3 -12 1 -16 -5 -3 -5 -12 -10 -18 -10 -7 0
-6 4 3 10 13 9 13 10 0 10 -13 0 -13 1 0 10 21 13 27 12 34 -6z m-5204 2 c0
-2 -7 -7 -16 -10 -8 -3 -12 -2 -9 4 6 10 25 14 25 6z m5140 -96 c0 -5 -5 -10
-11 -10 -5 0 -7 5 -4 10 3 6 8 10 11 10 2 0 4 -4 4 -10z m15 -32 c3 -3 -1 -11
-10 -18 -8 -7 -15 -11 -16 -9 -6 31 -5 37 7 35 7 -1 16 -5 19 -8z m-75 -98 c0
-5 -2 -10 -4 -10 -3 0 -8 5 -11 10 -3 6 -1 10 4 10 6 0 11 -4 11 -10z m6 -58
c-4 -26 -24 -25 -22 1 0 14 6 23 13 20 6 -2 10 -12 9 -21z m-6 -36 c0 -3 -4
-8 -10 -11 -5 -3 -10 -1 -10 4 0 6 5 11 10 11 6 0 10 -2 10 -4z m-126 -238
c-3 -5 -12 -2 -20 6 -20 21 -17 28 5 14 11 -7 17 -16 15 -20z m-71 -114 c-18
-28 -23 -26 -27 9 -2 19 1 24 12 19 12 -4 14 -1 9 14 -7 18 -7 18 7 0 13 -16
13 -21 -1 -42z m-5084 -141 c1 -1 0 -6 -4 -12 -4 -7 -10 -8 -18 -1 -7 6 -21
17 -32 25 -18 13 -16 13 15 2 19 -6 37 -13 39 -14z m271 -63 c0 -5 -2 -10 -4
-10 -3 0 -8 5 -11 10 -3 6 -1 10 4 10 6 0 11 -4 11 -10z m4645 -18 c2 -12 -1
-25 -7 -28 -6 -4 -8 -2 -4 4 3 6 2 13 -3 17 -6 3 -8 12 -4 21 7 18 12 14 18
-14z m-144 -145 c-10 -9 -11 -8 -5 6 3 10 9 15 12 12 3 -3 0 -11 -7 -18z
m-286 -347 c9 -16 11 -30 6 -30 -5 0 -23 -11 -39 -25 -17 -14 -32 -22 -34 -18
-8 16 -3 38 9 38 6 0 15 3 19 8 4 4 2 7 -5 7 -7 0 -9 5 -6 10 4 6 16 8 27 4
17 -5 18 -3 9 15 -7 12 -9 21 -7 21 3 0 12 -13 21 -30z m-1938 -234 c0 -7 -5
-13 -12 -13 -6 0 -11 8 -11 18 0 9 5 15 11 12 7 -2 12 -10 12 -17z m-317 -67
c-11 -7 -6 -8 15 -3 27 7 29 6 16 -9 -7 -9 -18 -14 -23 -11 -6 4 -13 1 -17 -5
-5 -7 -12 -3 -19 13 -9 20 -9 24 2 20 8 -3 17 0 21 6 4 6 10 9 13 5 4 -3 0
-10 -8 -16z m-98 -16 c-9 -4 -10 -8 -2 -18 8 -9 8 -15 0 -20 -16 -10 -24 23
-10 40 7 9 16 13 19 9 3 -4 0 -9 -7 -11z m1098 -7 c0 -3 -4 -8 -10 -11 -5 -3
-10 -1 -10 4 0 6 5 11 10 11 6 0 10 -2 10 -4z m-1450 -21 c0 -7 -30 -13 -34
-7 -3 4 4 9 15 9 10 1 19 0 19 -2z m36 -4 c18 15 31 4 16 -14 -7 -8 -10 -16
-7 -19 3 -2 -2 -5 -10 -5 -8 0 -15 7 -16 16 0 11 -2 12 -6 3 -2 -6 -9 -10 -14
-7 -5 4 -3 12 4 20 6 7 14 9 15 4 2 -6 10 -5 18 2z m74 -1 c0 -4 -7 -7 -15 -6
-23 3 -26 12 -5 13 11 1 20 -2 20 -7z m-253 -6 c-3 -3 -12 -4 -19 -1 -8 3 -5
6 6 6 11 1 17 -2 13 -5z m-654 -44 c3 -11 3 -20 1 -20 -2 0 -8 9 -14 20 -6 11
-7 20 -2 20 6 0 12 -9 15 -20z"/>
<path d="M5959 1943 c-13 -16 -12 -17 4 -4 16 13 21 21 13 21 -2 0 -10 -8 -17
-17z"/>
<path d="M5344 1201 c6 -10 -18 -34 -26 -26 -2 3 -5 -2 -5 -10 0 -12 6 -10 26
7 14 13 27 24 29 24 2 1 -4 4 -13 8 -9 3 -14 2 -11 -3z"/>
<path d="M5350 5129 c0 -5 5 -7 10 -4 6 3 10 8 10 11 0 2 -4 4 -10 4 -5 0 -10
-5 -10 -11z"/>
<path d="M5815 4750 c3 -5 8 -10 11 -10 2 0 4 5 4 10 0 6 -5 10 -11 10 -5 0
-7 -4 -4 -10z"/>
<path d="M5857 4713 c-4 -3 -7 -11 -7 -17 0 -6 5 -5 12 2 6 6 9 14 7 17 -3 3
-9 2 -12 -2z"/>
<path d="M5991 4533 c6 -7 17 -13 23 -12 7 0 6 2 -2 6 -6 2 -10 8 -8 12 3 4
-1 8 -9 8 -11 0 -12 -4 -4 -14z"/>
<path d="M6079 4397 c6 -8 7 -18 3 -22 -4 -5 -1 -5 6 -1 10 6 10 11 1 22 -6 8
-14 14 -16 14 -3 0 0 -6 6 -13z"/>
<path d="M6155 4290 c3 -5 8 -10 11 -10 2 0 4 5 4 10 0 6 -5 10 -11 10 -5 0
-7 -4 -4 -10z"/>
<path d="M6206 4172 c-3 -5 1 -9 9 -9 8 0 12 4 9 9 -3 4 -7 8 -9 8 -2 0 -6 -4
-9 -8z"/>
<path d="M6226 4104 c-5 -13 -4 -14 7 -6 8 7 18 8 22 4 5 -4 5 -1 1 6 -10 17
-23 15 -30 -4z"/>
<path d="M6230 4069 c0 -15 18 -19 23 -6 3 8 -1 14 -9 14 -8 0 -14 -4 -14 -8z"/>
<path d="M6260 3985 c7 -8 17 -15 22 -15 5 0 3 7 -6 15 -8 8 -18 15 -22 15 -3
0 -1 -7 6 -15z"/>
<path d="M6300 3920 c-6 -11 -9 -20 -8 -20 2 0 11 9 21 20 9 11 13 20 7 20 -5
0 -14 -9 -20 -20z"/>
<path d="M6314 3899 c-3 -6 -2 -15 3 -20 5 -5 9 -1 9 11 0 23 -2 24 -12 9z"/>
<path d="M6303 3854 c0 -16 13 -19 21 -5 3 5 0 11 -7 14 -8 3 -14 -1 -14 -9z"/>
<path d="M6320 3790 c-13 -8 -12 -10 3 -10 9 0 17 5 17 10 0 12 -1 12 -20 0z"/>
<path d="M6335 3762 c-15 -11 -17 -32 -2 -26 8 3 14 11 14 19 0 8 -1 15 -1 15
-1 0 -5 -4 -11 -8z"/>
<path d="M6376 3563 c-6 -14 -5 -15 5 -6 7 7 10 15 7 18 -3 3 -9 -2 -12 -12z"/>
<path d="M6376 3452 c-2 -4 -1 -14 4 -22 7 -11 9 -9 7 8 -1 24 -3 26 -11 14z"/>
<path d="M6349 3358 c-7 -24 -4 -40 9 -50 15 -11 15 -11 4 4 -9 11 -10 18 -2
23 13 8 13 25 0 25 -5 0 -10 -1 -11 -2z"/>
<path d="M6376 3332 c-2 -4 -1 -14 4 -22 7 -11 9 -9 7 8 -1 24 -3 26 -11 14z"/>
<path d="M6353 3263 c4 -3 2 -12 -5 -20 -8 -11 -7 -12 6 -7 18 7 22 34 4 34
-6 0 -8 -3 -5 -7z"/>
<path d="M6343 2975 c0 -8 4 -15 9 -15 4 0 8 4 8 9 0 6 -4 12 -8 15 -5 3 -9
-1 -9 -9z"/>
<path d="M6390 2929 c0 -5 5 -7 10 -4 6 3 10 8 10 11 0 2 -4 4 -10 4 -5 0 -10
-5 -10 -11z"/>
<path d="M6350 2869 c0 -5 -4 -8 -9 -4 -5 3 -12 1 -15 -4 -4 -5 -2 -12 4 -16
6 -4 7 -11 4 -17 -4 -7 -2 -8 5 -4 6 4 9 12 6 17 -4 5 1 12 9 15 18 7 22 24 6
24 -5 0 -10 -5 -10 -11z"/>
<path d="M6357 2823 c-10 -9 -9 -23 1 -23 5 0 9 7 9 15 0 17 -1 18 -10 8z"/>
<path d="M236 2783 c-6 -14 -5 -15 5 -6 7 7 10 15 7 18 -3 3 -9 -2 -12 -12z"/>
<path d="M305 2779 c-11 -16 -1 -19 13 -3 7 8 8 14 3 14 -5 0 -13 -5 -16 -11z"/>
<path d="M6356 2763 c-6 -14 -5 -15 5 -6 7 7 10 15 7 18 -3 3 -9 -2 -12 -12z"/>
<path d="M486 2736 c3 -8 12 -17 20 -20 9 -3 12 -11 8 -17 -5 -8 -3 -9 5 -4 9
5 7 13 -10 31 -26 28 -31 30 -23 10z"/>
<path d="M335 2731 c-3 -5 -2 -12 3 -15 5 -3 9 1 9 9 0 17 -3 19 -12 6z"/>
<path d="M587 2693 c-3 -5 5 -8 18 -8 13 0 21 3 18 8 -2 4 -10 7 -18 7 -8 0
-16 -3 -18 -7z"/>
<path d="M890 2570 c6 -11 15 -20 20 -20 6 0 2 9 -7 20 -10 11 -19 20 -21 20
-1 0 2 -9 8 -20z"/>
<path d="M1110 2575 c0 -7 30 -13 34 -7 3 4 -4 9 -15 9 -10 1 -19 0 -19 -2z"/>
<path d="M700 2555 c-7 -9 -8 -15 -2 -15 5 0 12 7 16 15 3 8 4 15 2 15 -2 0
-9 -7 -16 -15z"/>
<path d="M6295 2549 c-4 -6 -5 -12 -2 -15 2 -3 7 2 10 11 7 17 1 20 -8 4z"/>
<path d="M777 2535 c-4 -8 -3 -16 1 -19 4 -3 9 4 9 15 2 23 -3 25 -10 4z"/>
<path d="M6256 2405 c-9 -26 -7 -32 5 -12 6 10 9 21 6 23 -2 3 -7 -2 -11 -11z"/>
<path d="M6175 2259 c-4 -6 -5 -12 -2 -15 2 -3 7 2 10 11 7 17 1 20 -8 4z"/>
<path d="M6190 2209 c0 -5 5 -7 10 -4 6 3 10 8 10 11 0 2 -4 4 -10 4 -5 0 -10
-5 -10 -11z"/>
<path d="M6006 1981 c-3 -5 2 -15 12 -22 15 -12 16 -12 5 2 -7 9 -10 19 -6 22
3 4 4 7 0 7 -3 0 -8 -4 -11 -9z"/>
<path d="M5916 1873 c-10 -13 -15 -27 -12 -30 3 -4 6 -2 6 4 0 5 7 10 15 10 8
0 15 -5 15 -10 0 -6 3 -7 6 -4 4 4 1 13 -6 22 -14 17 -7 19 20 5 13 -7 21 -6
26 2 4 7 3 10 -1 5 -5 -4 -18 -1 -29 7 -19 12 -23 11 -40 -11z"/>
<path d="M940 1766 c0 -3 9 -10 20 -16 11 -6 20 -8 20 -6 0 3 -9 10 -20 16
-11 6 -20 8 -20 6z"/>
<path d="M890 1750 c0 -5 5 -10 11 -10 5 0 7 5 4 10 -3 6 -8 10 -11 10 -2 0
-4 -4 -4 -10z"/>
<path d="M937 1739 c7 -7 15 -10 18 -7 3 3 -2 9 -12 12 -14 6 -15 5 -6 -5z"/>
<path d="M987 1733 c-3 -5 5 -8 18 -8 13 0 21 3 18 8 -2 4 -10 7 -18 7 -8 0
-16 -3 -18 -7z"/>
<path d="M1100 1716 c0 -2 7 -6 15 -10 8 -3 15 -1 15 4 0 6 -7 10 -15 10 -8 0
-15 -2 -15 -4z"/>
<path d="M5834 1696 c0 -13 5 -22 9 -19 5 3 6 11 3 18 -3 8 0 16 7 19 7 2 5 5
-4 5 -12 1 -16 -7 -15 -23z"/>
<path d="M5768 1669 c7 -9 10 -24 6 -33 -3 -9 -2 -16 3 -16 16 0 12 38 -5 52
-15 11 -15 11 -4 -3z"/>
<path d="M5642 1513 c-9 -3 -6 -12 12 -28 14 -13 22 -26 18 -31 -4 -4 -1 -4 7
1 12 7 11 10 -2 20 -22 16 -22 29 -1 21 14 -5 15 -4 4 9 -13 16 -17 17 -38 8z"/>
<path d="M5546 1399 c-14 -11 -23 -26 -19 -32 4 -6 0 -8 -10 -4 -9 3 -16 3
-16 -1 1 -4 0 -9 -1 -12 -1 -3 -3 -23 -5 -45 -1 -22 -1 -34 2 -27 3 6 10 9 16
6 9 -5 8 -3 0 6 -14 15 2 54 18 45 5 -4 6 -11 3 -17 -5 -7 -2 -8 5 -3 9 5 10
10 2 18 -21 21 -11 30 12 11 22 -19 22 -19 4 2 -21 25 -11 40 13 19 15 -14 16
-13 14 7 -1 13 -3 25 -4 28 -1 3 -2 8 -1 13 2 11 -4 9 -33 -14z m30 -11 c5 -7
2 -9 -8 -5 -9 3 -22 0 -29 -6 -11 -10 -11 -9 0 6 16 20 27 22 37 5z"/>
<path d="M5620 1416 c0 -2 8 -10 18 -17 15 -13 16 -12 3 4 -13 16 -21 21 -21
13z"/>
<path d="M5428 1213 c7 -3 16 -2 19 1 4 3 -2 6 -13 5 -11 0 -14 -3 -6 -6z"/>
<path d="M5334 1129 c-3 -6 -2 -15 3 -20 5 -5 9 -1 9 11 0 23 -2 24 -12 9z"/>
<path d="M5210 1075 c-14 -8 -19 -14 -11 -15 8 0 22 -7 31 -15 14 -13 17 -13
17 -1 0 8 -3 15 -6 14 -19 -2 -24 4 -11 12 24 15 7 19 -20 5z"/>
<path d="M5270 1079 c0 -5 -5 -7 -12 -3 -7 4 -8 3 -4 -5 6 -9 11 -9 22 0 17
14 18 19 4 19 -5 0 -10 -5 -10 -11z"/>
<path d="M3626 1032 c-9 -15 9 -31 24 -22 13 8 12 10 -3 10 -10 0 -15 5 -12
10 3 6 4 10 1 10 -3 0 -7 -4 -10 -8z"/>
<path d="M3674 1004 c4 -9 2 -22 -4 -29 -7 -8 -6 -12 3 -12 8 0 13 12 13 29 0
15 -4 28 -9 28 -5 0 -6 -7 -3 -16z"/>
<path d="M3600 990 c-9 -6 -10 -10 -3 -10 6 0 15 5 18 10 8 12 4 12 -15 0z"/>
<path d="M3730 986 c0 -2 7 -7 16 -10 8 -3 12 -2 9 4 -6 10 -25 14 -25 6z"/>
<path d="M5040 972 c0 -5 7 -15 15 -22 8 -7 15 -9 15 -6 0 4 -7 14 -15 22 -8
9 -15 11 -15 6z"/>
<path d="M5000 964 c0 -1 11 -9 25 -18 25 -16 25 -16 14 2 -9 15 -39 27 -39
16z"/>
<path d="M3810 950 c0 -5 5 -10 11 -10 5 0 7 5 4 10 -3 6 -8 10 -11 10 -2 0
-4 -4 -4 -10z"/>
<path d="M4979 937 c7 -7 17 -12 24 -12 7 -1 11 -7 9 -14 -1 -7 2 -10 7 -6 10
6 4 34 -8 36 -3 0 -14 2 -25 4 -14 3 -16 1 -7 -8z"/>
<path d="M3345 930 c-3 -6 1 -7 9 -4 18 7 21 14 7 14 -6 0 -13 -4 -16 -10z"/>
<path d="M3770 936 c0 -2 7 -7 16 -10 8 -3 12 -2 9 4 -6 10 -25 14 -25 6z"/>
<path d="M3830 926 c0 -3 9 -10 20 -16 11 -6 20 -8 20 -6 0 3 -9 10 -20 16
-11 6 -20 8 -20 6z"/>
<path d="M4820 910 c-7 -13 -17 -19 -26 -16 -9 3 -12 1 -9 -4 8 -13 35 -13 35
1 0 5 5 7 10 4 6 -4 8 -10 5 -15 -3 -5 -1 -11 4 -14 10 -7 9 13 -2 31 -4 6 -2
13 5 15 9 3 9 6 1 11 -7 5 -17 -1 -23 -13z"/>
<path d="M3984 902 c-6 -4 -11 -15 -11 -24 0 -10 3 -15 6 -12 3 3 6 11 6 17 0
5 6 12 14 15 8 3 11 0 7 -7 -5 -7 -1 -9 9 -4 13 5 14 7 3 14 -16 11 -20 11
-34 1z"/>
<path d="M4046 901 c-4 -6 -3 -18 2 -27 8 -15 10 -14 16 2 8 20 -8 42 -18 25z"/>
<path d="M3256 888 c3 -5 10 -6 15 -3 13 9 11 12 -6 12 -8 0 -12 -4 -9 -9z"/>
<path d="M4757 894 c-3 -4 1 -13 9 -21 19 -20 26 -13 10 9 -7 10 -16 15 -19
12z"/>
<path d="M2946 879 c3 -5 0 -9 -5 -9 -6 0 -11 -4 -11 -9 0 -5 12 -8 26 -5 14
3 23 1 20 -4 -3 -5 1 -9 9 -9 12 0 12 3 0 21 -14 19 -51 34 -39 15z"/>
<path d="M4166 874 c-5 -13 -9 -14 -20 -5 -10 9 -16 9 -21 1 -4 -6 -3 -9 2 -8
4 1 18 -3 30 -10 16 -9 24 -9 29 0 5 7 3 8 -6 3 -9 -5 -10 -2 -5 14 7 24 0 29
-9 5z"/>
<path d="M4300 875 c-7 -8 -11 -15 -9 -16 31 -6 40 -5 49 6 8 9 8 15 0 20 -5
3 -10 -1 -10 -10 0 -9 -5 -13 -10 -10 -6 4 -8 11 -5 16 10 14 -1 10 -15 -6z"/>
<path d="M4241 857 c-13 -21 -12 -21 5 -5 10 10 16 20 13 22 -3 3 -11 -5 -18
-17z"/>
<path d="M4363 868 c-12 -16 -13 -49 -1 -42 5 3 6 10 2 15 -3 5 0 16 6 24 7 8
10 15 7 15 -2 0 -9 -6 -14 -12z"/>
<path d="M4520 870 c-13 -8 -12 -10 3 -10 10 0 16 -4 13 -8 -3 -5 1 -9 9 -9 8
0 11 5 8 10 -4 7 1 8 13 4 18 -7 18 -7 0 8 -23 18 -26 18 -46 5z"/>
<path d="M4605 871 c3 -6 2 -11 -3 -11 -5 0 -9 -7 -9 -15 0 -8 4 -15 9 -15 4
0 8 8 8 18 0 13 2 14 9 3 5 -7 11 -9 14 -4 3 5 -3 15 -15 22 -11 7 -17 8 -13
2z"/>
<path d="M4267 857 c-3 -8 1 -14 8 -14 7 0 11 6 8 14 -3 7 -6 13 -8 13 -2 0
-5 -6 -8 -13z"/>
<path d="M4746 853 c-6 -14 -5 -15 5 -6 7 7 10 15 7 18 -3 3 -9 -2 -12 -12z"/>
<path d="M1436 851 c-3 -5 1 -11 9 -14 9 -4 12 -1 8 9 -6 16 -10 17 -17 5z"/>
<path d="M2911 844 c0 -11 3 -14 6 -6 3 7 2 16 -1 19 -3 4 -6 -2 -5 -13z"/>
<path d="M3100 856 c0 -2 8 -10 18 -17 15 -13 16 -12 3 4 -13 16 -21 21 -21
13z"/>
<path d="M1510 828 c0 -4 4 -8 9 -8 6 0 12 4 15 8 3 5 -1 9 -9 9 -8 0 -15 -4
-15 -9z"/>
<path d="M1574 817 c-10 -12 -12 -17 -5 -10 7 6 20 9 27 6 8 -3 14 0 14 5 0
21 -18 21 -36 -1z"/>
<path d="M2433 827 c0 -7 9 -13 19 -13 10 0 18 1 18 3 0 1 -8 7 -18 12 -13 7
-19 6 -19 -2z"/>
<path d="M2930 829 c0 -5 5 -7 10 -4 6 3 10 8 10 11 0 2 -4 4 -10 4 -5 0 -10
-5 -10 -11z"/>
<path d="M4399 823 c-13 -16 -12 -17 4 -4 9 7 17 15 17 17 0 8 -8 3 -21 -13z"/>
<path d="M1482 817 c10 -8 14 -18 10 -22 -4 -5 -1 -5 6 -1 17 10 15 14 -10 26
-21 10 -21 10 -6 -3z"/>
<path d="M1624 819 c-2 -4 0 -10 6 -14 6 -4 8 -10 5 -15 -3 -5 0 -12 6 -16 7
-4 9 -3 6 3 -6 10 29 50 41 46 3 -1 10 -10 14 -20 7 -17 8 -16 5 2 -2 15 -10
20 -40 20 -21 1 -40 -2 -43 -6z m36 -5 c0 -8 -19 -13 -24 -6 -3 5 1 9 9 9 8 0
15 -2 15 -3z"/>
<path d="M1723 818 c-3 -5 -2 -12 1 -15 3 -4 6 0 6 7 0 8 7 5 18 -8 18 -20 18
-20 30 -1 7 10 12 20 12 22 0 8 -62 3 -67 -5z m47 -8 c0 -5 -2 -10 -4 -10 -3
0 -8 5 -11 10 -3 6 -1 10 4 10 6 0 11 -4 11 -10z"/>
<path d="M1897 813 c3 -8 11 -12 17 -10 6 2 19 0 29 -5 10 -5 25 -5 38 2 15 8
24 8 34 0 18 -15 32 7 16 23 -9 9 -11 7 -6 -8 6 -19 6 -19 -8 -2 -10 12 -17
14 -22 7 -3 -5 -12 -7 -18 -3 -7 4 -28 8 -48 8 -27 1 -35 -3 -32 -12z m73 -3
c0 -5 -4 -10 -10 -10 -5 0 -10 5 -10 10 0 6 5 10 10 10 6 0 10 -4 10 -10z"/>
<path d="M2134 819 c-3 -6 -1 -16 5 -22 9 -9 10 -7 5 7 -5 13 -4 17 4 12 7 -4
12 -2 12 3 0 14 -17 14 -26 0z"/>
<path d="M2167 811 c-4 -17 -3 -21 5 -13 5 5 8 16 6 23 -3 8 -7 3 -11 -10z"/>
<path d="M2203 823 c-15 -5 -17 -23 -4 -23 5 0 11 7 15 15 3 8 4 15 3 14 -1 0
-8 -3 -14 -6z"/>
<path d="M2230 809 c-11 -19 -10 -20 10 -9 11 6 18 15 15 21 -9 13 -13 11 -25
-12z"/>
<path d="M2541 814 c0 -11 3 -14 6 -6 3 7 2 16 -1 19 -3 4 -6 -2 -5 -13z"/>
<path d="M4625 810 c-3 -6 1 -7 9 -4 18 7 21 14 7 14 -6 0 -13 -4 -16 -10z"/>
<path d="M1805 802 c-10 -7 -18 -32 -10 -32 2 0 9 9 15 20 12 22 11 24 -5 12z"/>
<path d="M1590 788 c0 -4 4 -8 9 -8 6 0 12 4 15 8 3 5 -1 9 -9 9 -8 0 -15 -4
-15 -9z"/>
<path d="M1826 792 c-3 -5 1 -9 9 -9 8 0 15 4 15 9 0 4 -4 8 -9 8 -6 0 -12 -4
-15 -8z"/>
<path d="M2050 790 c0 -5 5 -10 11 -10 5 0 7 5 4 10 -3 6 -8 10 -11 10 -2 0
-4 -4 -4 -10z"/>
<path d="M2370 789 c0 -5 5 -7 10 -4 6 3 10 8 10 11 0 2 -4 4 -10 4 -5 0 -10
-5 -10 -11z"/>
<path d="M1730 786 c0 -2 8 -10 18 -17 15 -13 16 -12 3 4 -13 16 -21 21 -21
13z"/>
<path d="M1993 776 c0 -15 22 -15 34 0 4 5 4 6 -1 2 -5 -4 -14 -3 -21 2 -8 7
-12 5 -12 -4z"/>
<path d="M2205 770 c-3 -6 1 -7 9 -4 18 7 21 14 7 14 -6 0 -13 -4 -16 -10z"/>
</g>
</svg>
